<?xml version="1.0" encoding="iso-8859-1"?>
<!-- Generator: Adobe Illustrator 19.0.0, SVG Export Plug-In . SVG Version: 6.00 Build 0)  -->
<svg version="1.1" id="Layer_1" xmlns="http://www.w3.org/2000/svg" xmlns:xlink="http://www.w3.org/1999/xlink" x="0px" y="0px"
	 viewBox="0 0 512 512" style="enable-background:new 0 0 512 512;" xml:space="preserve">
<circle style="fill:#C1D354;" cx="256" cy="256" r="256"/>
<path style="fill:#9DB138;" d="M330.568,134.185l-8.699-8.671c-17.518-15.542-40.594-24.942-65.864-24.942
	c-5.647,0-11.174,0.499-16.561,1.398l-0.008-0.008c-0.253,0.044-0.502,0.1-0.755,0.146c-1.183,0.207-2.363,0.425-3.528,0.671
	c-0.225,0.049-0.451,0.105-0.676,0.156c-3.84,0.85-7.598,1.917-11.256,3.195c-0.317,0.105-0.632,0.205-0.947,0.317
	c-0.893,0.323-1.777,0.678-2.662,1.024c-0.55,0.218-1.111,0.425-1.656,0.653c-0.801,0.33-1.587,0.686-2.381,1.037
	c-0.62,0.276-1.236,0.55-1.856,0.84c-0.737,0.343-1.472,0.709-2.202,1.075c-0.643,0.323-1.285,0.648-1.92,0.983
	c-0.701,0.374-1.39,0.748-2.079,1.132c-0.653,0.366-1.298,0.742-1.946,1.121c-0.66,0.387-1.313,0.776-1.961,1.175
	c-0.668,0.415-1.329,0.842-1.979,1.272c-0.607,0.394-1.216,0.786-1.812,1.198c-0.694,0.481-1.38,0.973-2.066,1.472
	c-0.535,0.387-1.085,0.773-1.615,1.17c-0.794,0.602-1.572,1.226-2.345,1.848c-0.402,0.32-0.814,0.63-1.213,0.96
	c-1.152,0.955-2.278,1.93-3.389,2.936c-0.325,0.294-0.64,0.609-0.965,0.911c-0.791,0.73-1.569,1.467-2.335,2.227
	c-0.407,0.407-0.806,0.829-1.208,1.244c-0.655,0.673-1.313,1.352-1.953,2.043c-0.415,0.456-0.822,0.919-1.229,1.377
	c-0.599,0.681-1.201,1.362-1.784,2.058c-0.399,0.484-0.801,0.975-1.193,1.467c-0.566,0.694-1.124,1.405-1.664,2.115
	c-0.381,0.507-0.76,1.009-1.137,1.518c-0.532,0.73-1.06,1.475-1.58,2.222c-0.351,0.509-0.699,1.014-1.039,1.528
	c-0.527,0.783-1.024,1.58-1.531,2.381c-0.31,0.492-0.62,0.983-0.919,1.482c-0.527,0.883-1.032,1.777-1.539,2.673
	c-0.243,0.438-0.499,0.868-0.737,1.311c-0.645,1.198-1.265,2.409-1.861,3.638c-0.074,0.151-0.154,0.294-0.228,0.448
	c-0.671,1.39-1.303,2.803-1.915,4.227c-0.159,0.379-0.302,0.771-0.461,1.152c-0.425,1.042-0.847,2.086-1.239,3.146
	c-0.197,0.53-0.376,1.068-0.563,1.605c-0.33,0.924-0.648,1.853-0.947,2.79c-0.189,0.596-0.361,1.193-0.54,1.792
	c-0.266,0.899-0.527,1.797-0.765,2.708c-0.169,0.625-0.323,1.254-0.479,1.884c-0.225,0.901-0.435,1.805-0.632,2.716
	c-0.133,0.64-0.266,1.28-0.392,1.923c-0.184,0.919-0.346,1.848-0.499,2.778c-0.108,0.64-0.212,1.277-0.31,1.923
	c-0.136,0.963-0.253,1.93-0.366,2.9c-0.069,0.625-0.154,1.244-0.21,1.869c-0.108,1.068-0.177,2.143-0.246,3.215
	c-0.036,0.532-0.084,1.065-0.113,1.6c-0.077,1.615-0.118,3.238-0.118,4.874c0,2.163,0.092,4.298,0.228,6.426
	c0.038,0.558,0.077,1.114,0.123,1.669c0.154,1.897,0.351,3.781,0.607,5.647c0.031,0.236,0.054,0.474,0.087,0.707
	c0.294,2.051,0.673,4.073,1.096,6.08c0.113,0.543,0.238,1.085,0.364,1.626c0.381,1.669,0.796,3.323,1.265,4.961
	c0.108,0.381,0.2,0.768,0.312,1.147c0.568,1.912,1.193,3.791,1.871,5.652c0.195,0.538,0.404,1.065,0.607,1.595
	c0.563,1.467,1.16,2.921,1.784,4.362c0.212,0.474,0.407,0.955,0.627,1.428c0.801,1.754,1.654,3.479,2.557,5.179
	c0.266,0.504,0.553,1.004,0.832,1.51c0.719,1.298,1.464,2.583,2.237,3.848c0.32,0.52,0.632,1.047,0.963,1.559
	c1.011,1.592,2.063,3.149,3.164,4.677c0.187,0.261,0.374,0.52,0.568,0.778c0.264,0.361,0.54,0.701,0.806,1.055
	c0.755,0.998,1.528,1.979,2.314,2.949c0.312,0.376,0.604,0.768,0.919,1.142c0.115,0.138,0.243,0.266,0.358,0.404
	c1.175,1.38,2.381,2.742,3.628,4.055c0.031,0.036,0.061,0.064,0.095,0.1c0.456,0.479,0.934,0.929,1.403,1.403
	c0.596,0.596,1.172,1.213,1.792,1.792l24.105,24.1v17.628h-4.972l-3.407,3.438l3.407,3.4v4.209l-3.407,3.397l3.407,3.443v4.204
	l-3.407,3.438l3.407,3.4v4.209l-3.407,3.441l3.407,3.4v4.209l-3.407,3.433l3.407,3.402v4.247l-3.407,3.397l3.407,3.4v0.038h0.036
	l18.245,18.25v10.058c0,1.9,0.73,3.799,2.196,5.266l94.385,94.387c92.767-24.323,164.956-99.384,185.175-193.741L330.568,134.185z"
	/>
<circle style="fill:#E1EFFA;" cx="256" cy="200.09" r="99.517"/>
<rect x="211.2" y="288.691" style="fill:#CEE2F2;" width="89.569" height="24.878"/>
<path style="fill:#E1EFFA;" d="M224.504,375.649v28.321c0,1.91,0.732,3.814,2.186,5.268c1.457,1.459,3.364,2.191,5.271,2.191
	c1.905,0,3.814-0.732,5.268-2.191c1.454-1.452,2.184-3.359,2.184-5.268v-28.321H224.504z"/>
<path style="fill:#F9FDFF;" d="M231.964,406.956c-0.801,0-1.546-0.315-2.115-0.876c-0.556-0.566-0.87-1.311-0.87-2.109v-28.321
	h-2.982v28.321c0,1.595,0.622,3.09,1.746,4.214c1.132,1.121,2.627,1.748,4.221,1.748c0.822,0,1.485-0.668,1.485-1.487
	C233.449,407.624,232.786,406.956,231.964,406.956z"/>
<path style="fill:#E1EFFA;" d="M272.579,375.649v28.321c0,1.91,0.732,3.814,2.191,5.268c1.452,1.459,3.361,2.191,5.268,2.191
	c1.902,0,3.812-0.732,5.268-2.191c1.452-1.452,2.184-3.359,2.184-5.268v-28.321H272.579z"/>
<path style="fill:#F9FDFF;" d="M280.038,406.956c-0.801,0-1.546-0.315-2.109-0.876c-0.561-0.566-0.876-1.311-0.876-2.109v-28.321
	h-2.977v28.321c0,1.595,0.617,3.09,1.746,4.214c1.126,1.121,2.627,1.748,4.216,1.748c0.822,0,1.487-0.668,1.487-1.487
	C281.526,407.624,280.86,406.956,280.038,406.956z"/>
<rect x="206.234" y="313.549" style="fill:#34495E;" width="99.51" height="62.08"/>
<polygon style="fill:#5D6D7E;" points="305.756,313.562 206.244,313.562 206.244,313.562 206.244,313.562 202.819,316.984 
	309.174,316.984 "/>
<polygon style="fill:#283A4D;" points="305.756,320.397 206.244,320.397 206.244,320.397 206.244,320.397 202.819,316.984 
	309.174,316.984 "/>
<polygon style="fill:#5D6D7E;" points="305.756,324.616 206.244,324.616 206.244,324.616 206.244,324.616 202.819,328.031 
	309.174,328.031 "/>
<polygon style="fill:#283A4D;" points="305.756,331.446 206.244,331.446 206.244,331.446 206.244,331.446 202.819,328.031 
	309.174,328.031 "/>
<polygon style="fill:#5D6D7E;" points="305.756,335.66 206.244,335.66 206.244,335.66 206.244,335.66 202.819,339.082 
	309.174,339.082 "/>
<polygon style="fill:#283A4D;" points="305.756,342.505 206.244,342.505 206.244,342.505 206.244,342.505 202.819,339.082 
	309.174,339.082 "/>
<polygon style="fill:#5D6D7E;" points="305.756,346.711 206.244,346.711 206.244,346.711 206.244,346.711 202.819,350.121 
	309.174,350.121 "/>
<polygon style="fill:#283A4D;" points="305.756,353.546 206.244,353.546 206.244,353.546 206.244,353.546 202.819,350.121 
	309.174,350.121 "/>
<polygon style="fill:#5D6D7E;" points="305.756,357.757 206.244,357.757 206.244,357.757 206.244,357.757 202.819,361.185 
	309.174,361.185 "/>
<polygon style="fill:#283A4D;" points="305.756,364.598 206.244,364.598 206.244,364.598 206.244,364.598 202.819,361.185 
	309.174,361.185 "/>
<polygon style="fill:#5D6D7E;" points="305.756,368.804 206.244,368.804 206.244,368.804 206.244,368.804 202.819,372.224 
	309.174,372.224 "/>
<polygon style="fill:#283A4D;" points="305.756,375.649 206.244,375.649 206.244,375.649 206.244,375.649 202.819,372.224 
	309.174,372.224 "/>
<g>
	<path style="fill:#F9FDFF;" d="M231.892,133.77c8.161,8.161,5.33,24.223-6.328,35.881c-11.658,11.666-27.727,14.502-35.896,6.333
		c-8.156-8.164-5.322-24.223,6.336-35.894C207.665,128.435,223.734,125.609,231.892,133.77z"/>
	<path style="fill:#F9FDFF;" d="M318.1,237.563c4.759,4.762,3.108,14.136-3.692,20.931c-6.797,6.804-16.177,8.448-20.938,3.694
		c-4.759-4.769-3.103-14.129,3.697-20.928C303.964,234.46,313.339,232.799,318.1,237.563z"/>
</g>
<g>
	<rect x="254.515" y="225.92" style="fill:#34495E;" width="2.949" height="87.654"/>
	<polygon style="fill:#34495E;" points="256,227.991 230.28,202.273 232.364,200.195 256,223.834 279.636,200.195 281.72,202.273 	
		"/>
</g>
<g>
</g>
<g>
</g>
<g>
</g>
<g>
</g>
<g>
</g>
<g>
</g>
<g>
</g>
<g>
</g>
<g>
</g>
<g>
</g>
<g>
</g>
<g>
</g>
<g>
</g>
<g>
</g>
<g>
</g>
</svg>
