<?xml version="1.0" encoding="iso-8859-1"?>
<!-- Generator: Adobe Illustrator 19.0.0, SVG Export Plug-In . SVG Version: 6.00 Build 0)  -->
<svg version="1.1" id="Capa_1" xmlns="http://www.w3.org/2000/svg" xmlns:xlink="http://www.w3.org/1999/xlink" x="0px" y="0px"
	 viewBox="0 0 512.001 512.001" style="enable-background:new 0 0 512.001 512.001;" xml:space="preserve">
<path style="fill:#6F4BEF;" d="M428.978,21.766H91.866c-18.646,0-33.761,15.115-33.761,33.761v197.626
	c0,18.646,15.115,33.761,33.761,33.761h122.465l32.238,32.238c3.433,3.433,9,3.433,12.433,0l32.238-32.238h137.738
	c18.646,0,33.761-15.115,33.761-33.761V55.527C462.739,36.882,447.624,21.766,428.978,21.766z"/>
<path style="fill:#5E45D8;" d="M434.529,22.228c1.535,3.859,2.388,8.063,2.388,12.469v151.707c0,44.006-35.674,79.68-79.68,79.68
	h-72.799c-12.178,0-23.858,4.838-32.47,13.449l-22.509,22.509l17.109,17.109c3.433,3.433,9,3.433,12.433,0l32.238-32.238h137.738
	c18.646,0,33.761-15.115,33.761-33.761V55.527C462.739,38.773,450.533,24.877,434.529,22.228z"/>
<g>
	<path style="fill:#4628B2;" d="M402.872,87.547H116.064c-4.579,0-8.292-3.712-8.292-8.292s3.712-8.292,8.292-8.292h286.808
		c4.579,0,8.292,3.712,8.292,8.292S407.451,87.547,402.872,87.547z"/>
	<path style="fill:#4628B2;" d="M402.872,239.23H116.064c-4.579,0-8.292-3.712-8.292-8.292c0-4.579,3.712-8.292,8.292-8.292h286.808
		c4.579,0,8.292,3.712,8.292,8.292C411.164,235.518,407.451,239.23,402.872,239.23z"/>
	<path style="fill:#4628B2;" d="M286.93,202.525H116.064c-4.579,0-8.292-3.712-8.292-8.292c0-4.579,3.712-8.292,8.292-8.292H286.93
		c4.579,0,8.292,3.712,8.292,8.292C295.222,198.813,291.51,202.525,286.93,202.525z"/>
	<path style="fill:#4628B2;" d="M234.6,125.873H116.064c-4.579,0-8.292-3.712-8.292-8.292s3.712-8.292,8.292-8.292H234.6
		c4.579,0,8.292,3.712,8.292,8.292S239.18,125.873,234.6,125.873z"/>
	<path style="fill:#4628B2;" d="M190.577,164.199h-74.513c-4.579,0-8.292-3.712-8.292-8.292c0-4.579,3.712-8.292,8.292-8.292h74.513
		c4.579,0,8.292,3.712,8.292,8.292C198.868,160.487,195.156,164.199,190.577,164.199z"/>
	<path style="fill:#4628B2;" d="M314.351,164.199h-95.089c-4.579,0-8.292-3.712-8.292-8.292c0-4.579,3.712-8.292,8.292-8.292h95.089
		c4.579,0,8.292,3.712,8.292,8.292C322.642,160.487,318.93,164.199,314.351,164.199z"/>
	<path style="fill:#4628B2;" d="M404.781,164.199h-58.96c-4.579,0-8.292-3.712-8.292-8.292c0-4.579,3.712-8.292,8.292-8.292h58.96
		c4.579,0,8.292,3.712,8.292,8.292C413.072,160.487,409.36,164.199,404.781,164.199z"/>
	<path style="fill:#4628B2;" d="M404.781,202.525h-87.814c-4.579,0-8.292-3.712-8.292-8.292c0-4.579,3.712-8.292,8.292-8.292h87.814
		c4.579,0,8.292,3.712,8.292,8.292C413.072,198.813,409.36,202.525,404.781,202.525z"/>
	<path style="fill:#4628B2;" d="M402.872,125.873H267.253c-4.579,0-8.292-3.712-8.292-8.292s3.712-8.292,8.292-8.292h135.619
		c4.579,0,8.292,3.712,8.292,8.292S407.451,125.873,402.872,125.873z"/>
</g>
<path style="fill:#FFDF47;" d="M64.798,376.133l15.577,31.563c0.616,1.248,1.806,2.112,3.183,2.313l34.832,5.061
	c3.467,0.504,4.852,4.765,2.343,7.211l-25.205,24.568c-0.996,0.971-1.451,2.37-1.216,3.742l5.95,34.691
	c0.592,3.453-3.032,6.087-6.134,4.456L62.974,473.36c-1.232-0.647-2.703-0.647-3.934,0l-31.155,16.379
	c-3.101,1.63-6.726-1.003-6.134-4.456l5.95-34.691c0.235-1.371-0.219-2.771-1.216-3.742L1.281,422.281
	c-2.509-2.446-1.125-6.707,2.343-7.211l34.832-5.061c1.377-0.2,2.567-1.065,3.183-2.313l15.577-31.563
	C58.767,372.991,63.247,372.991,64.798,376.133z"/>
<path style="fill:#FFD400;" d="M120.733,422.281c2.509-2.446,1.125-6.707-2.343-7.211l-34.832-5.061
	c-1.377-0.2-2.567-1.065-3.183-2.313l-15.577-31.563c-1.551-3.142-6.031-3.142-7.582,0l-15.577,31.563
	c-0.318,0.644-0.79,1.183-1.36,1.584l3.83,7.76c0.616,1.248,1.806,2.112,3.183,2.313l34.832,5.061
	c3.467,0.504,4.852,4.765,2.343,7.211l-25.205,24.568c-0.996,0.971-1.451,2.37-1.216,3.742l2.231,13.01
	c0.909-0.16,1.858-0.026,2.697,0.414l31.155,16.379c3.101,1.63,6.726-1.003,6.134-4.456l-5.95-34.691
	c-0.235-1.371,0.22-2.771,1.216-3.742L120.733,422.281z"/>
<path style="fill:#FFDF47;" d="M259.791,376.133l15.577,31.563c0.616,1.248,1.806,2.112,3.183,2.313l34.832,5.061
	c3.467,0.504,4.852,4.765,2.343,7.211l-25.205,24.568c-0.996,0.971-1.451,2.37-1.216,3.742l5.95,34.691
	c0.592,3.453-3.032,6.087-6.134,4.456l-31.155-16.379c-1.232-0.647-2.703-0.647-3.934,0l-31.155,16.379
	c-3.101,1.63-6.726-1.003-6.134-4.456l5.95-34.691c0.235-1.371-0.219-2.771-1.216-3.742l-25.205-24.568
	c-2.509-2.446-1.125-6.707,2.343-7.211l34.832-5.061c1.377-0.2,2.567-1.065,3.183-2.313l15.577-31.563
	C253.76,372.991,258.24,372.991,259.791,376.133z"/>
<path style="fill:#FFD400;" d="M315.726,422.281c2.509-2.446,1.125-6.707-2.343-7.211l-34.832-5.061
	c-1.377-0.2-2.567-1.065-3.183-2.313l-15.577-31.563c-1.551-3.142-6.031-3.142-7.582,0l-15.577,31.563
	c-0.318,0.644-0.79,1.183-1.36,1.584l3.83,7.76c0.616,1.248,1.806,2.112,3.183,2.313l34.832,5.061
	c3.467,0.504,4.852,4.765,2.343,7.211l-25.205,24.568c-0.996,0.971-1.451,2.37-1.216,3.742l2.231,13.01
	c0.909-0.16,1.858-0.026,2.697,0.414l31.155,16.379c3.101,1.63,6.726-1.003,6.134-4.456l-5.95-34.691
	c-0.235-1.371,0.22-2.771,1.216-3.742L315.726,422.281z"/>
<path style="fill:#FFDF47;" d="M454.784,376.133l15.577,31.563c0.616,1.248,1.806,2.112,3.183,2.313l34.832,5.061
	c3.467,0.504,4.852,4.765,2.343,7.211l-25.205,24.568c-0.996,0.971-1.451,2.37-1.216,3.742l5.95,34.691
	c0.592,3.453-3.032,6.087-6.134,4.456L452.96,473.36c-1.232-0.647-2.703-0.647-3.934,0l-31.155,16.379
	c-3.101,1.63-6.726-1.003-6.134-4.456l5.95-34.691c0.235-1.371-0.219-2.771-1.216-3.742l-25.205-24.568
	c-2.509-2.446-1.125-6.707,2.343-7.211l34.832-5.061c1.377-0.2,2.567-1.065,3.183-2.313l15.577-31.563
	C448.753,372.991,453.233,372.991,454.784,376.133z"/>
<path style="fill:#FFD400;" d="M510.719,422.281c2.509-2.446,1.125-6.707-2.343-7.211l-34.832-5.061
	c-1.377-0.2-2.567-1.065-3.183-2.313l-15.577-31.563c-1.551-3.142-6.031-3.142-7.582,0l-15.577,31.563
	c-0.318,0.644-0.79,1.183-1.36,1.584l3.83,7.76c0.616,1.248,1.806,2.112,3.183,2.313l34.832,5.061
	c3.467,0.504,4.852,4.765,2.343,7.211l-25.205,24.568c-0.996,0.971-1.451,2.37-1.216,3.742l2.231,13.01
	c0.909-0.16,1.858-0.026,2.697,0.414l31.155,16.379c3.101,1.63,6.726-1.003,6.134-4.456l-5.95-34.691
	c-0.235-1.371,0.22-2.771,1.216-3.742L510.719,422.281z"/>
<g>
</g>
<g>
</g>
<g>
</g>
<g>
</g>
<g>
</g>
<g>
</g>
<g>
</g>
<g>
</g>
<g>
</g>
<g>
</g>
<g>
</g>
<g>
</g>
<g>
</g>
<g>
</g>
<g>
</g>
</svg>
